<svg viewBox="0 0 900 690" width="900" height="690"
     xmlns="http://www.w3.org/2000/svg"
     font-family="-apple-system,'PingFang SC','Segoe UI',sans-serif"
     role="img">

  <title>多角色 Agent 协作平台 · 系统架构图</title>
  <desc>八层架构：用户交互层 / API层 / 协调层 / 专家Agent池 / Skills层+验证者 / 工具生态层 / LLM层 / 可观测层</desc>

  <!-- ── 全局 defs ── -->
  <defs>
    <marker id="arr-gray" markerWidth="7" markerHeight="7" refX="3.5" refY="3.5" orient="auto">
      <polygon points="0 0, 7 3.5, 0 7" fill="#d1d5db"/>
    </marker>
    <marker id="arr-amber" markerWidth="7" markerHeight="7" refX="3.5" refY="3.5" orient="auto">
      <polygon points="0 0, 7 3.5, 0 7" fill="#f59e0b"/>
    </marker>
  </defs>

  <!-- ── 背景 ── -->
  <rect width="900" height="690" fill="#ffffff"/>

  <!-- ══════════════════════ TITLE ══════════════════════ -->
  <text x="450" y="25" text-anchor="middle" font-size="15" font-weight="700" fill="#111827" letter-spacing="-0.3">多角色 Agent 协作平台 · 系统架构</text>
  <text x="450" y="41" text-anchor="middle" font-size="10" fill="#9ca3af">需求分析阶段 · 技术栈待审定 · 2026-06-30</text>

  <!-- ══════════════════════ ① 用户交互层  y=50 h=70 ══════════════════════ -->
  <rect x="10" y="50" width="880" height="70" rx="8" fill="#eff6ff" stroke="#bfdbfe" stroke-width="1.5"/>
  <text x="19" y="65" font-size="9" font-weight="700" fill="#1e40af" opacity="0.6" letter-spacing="0.6">① 用户交互层</text>

  <!-- 6 boxes: w=140, gap=7 → 6*140+5*7=875, start=12 -->
  <rect x="12"   y="68" width="140" height="44" rx="5" fill="#dbeafe" stroke="#93c5fd" stroke-width="1"/>
  <text x="82"   y="86" text-anchor="middle" font-size="11" font-weight="600" fill="#1e40af">React 18 + TypeScript</text>
  <text x="82"   y="101" text-anchor="middle" font-size="9.5" fill="#1e40af" opacity="0.65">框架</text>

  <rect x="159"  y="68" width="140" height="44" rx="5" fill="#dbeafe" stroke="#93c5fd" stroke-width="1"/>
  <text x="229"  y="86" text-anchor="middle" font-size="11" font-weight="600" fill="#1e40af">shadcn/ui</text>
  <text x="229"  y="101" text-anchor="middle" font-size="9.5" fill="#1e40af" opacity="0.65">组件库 · Radix UI</text>

  <rect x="306"  y="68" width="140" height="44" rx="5" fill="#dbeafe" stroke="#93c5fd" stroke-width="1"/>
  <text x="376"  y="86" text-anchor="middle" font-size="11" font-weight="600" fill="#1e40af">@xyflow/react</text>
  <text x="376"  y="101" text-anchor="middle" font-size="9.5" fill="#1e40af" opacity="0.65">Agent 流程图可视化</text>

  <rect x="453"  y="68" width="140" height="44" rx="5" fill="#dbeafe" stroke="#93c5fd" stroke-width="1"/>
  <text x="523"  y="86" text-anchor="middle" font-size="11" font-weight="600" fill="#1e40af">xterm.js + Recharts</text>
  <text x="523"  y="101" text-anchor="middle" font-size="9.5" fill="#1e40af" opacity="0.65">日志终端 + 图表</text>

  <rect x="600"  y="68" width="140" height="44" rx="5" fill="#dbeafe" stroke="#93c5fd" stroke-width="1"/>
  <text x="670"  y="86" text-anchor="middle" font-size="11" font-weight="600" fill="#1e40af">Zustand</text>
  <text x="670"  y="101" text-anchor="middle" font-size="9.5" fill="#1e40af" opacity="0.65">状态管理</text>

  <rect x="747"  y="68" width="143" height="44" rx="5" fill="#dbeafe" stroke="#93c5fd" stroke-width="1"/>
  <text x="818.5" y="86" text-anchor="middle" font-size="11" font-weight="600" fill="#1e40af">cmdk</text>
  <text x="818.5" y="101" text-anchor="middle" font-size="9.5" fill="#1e40af" opacity="0.65">命令面板</text>

  <!-- Arrow ①→② -->
  <line x1="10" y1="128" x2="193" y2="128" stroke="#e5e7eb" stroke-width="1"/>
  <text x="450" y="131" text-anchor="middle" font-size="9.5" fill="#9ca3af">REST / WebSocket (FastAPI)</text>
  <line x1="707" y1="128" x2="890" y2="128" stroke="#e5e7eb" stroke-width="1"/>
  <line x1="450" y1="120" x2="450" y2="140" stroke="#d1d5db" stroke-width="1.5" marker-end="url(#arr-gray)"/>

  <!-- ══════════════════════ ② API 层  y=144 h=64 ══════════════════════ -->
  <rect x="10" y="144" width="880" height="64" rx="8" fill="#f0f9ff" stroke="#bae6fd" stroke-width="1.5"/>
  <text x="19" y="159" font-size="9" font-weight="700" fill="#0369a1" opacity="0.6" letter-spacing="0.6">② API 层 · FastAPI + Pydantic v2</text>

  <!-- 4 boxes: w=210, gap=7 -->
  <rect x="12"  y="162" width="210" height="38" rx="5" fill="#e0f2fe" stroke="#7dd3fc" stroke-width="1"/>
  <text x="117" y="178" text-anchor="middle" font-size="11" font-weight="600" fill="#0369a1">REST API</text>
  <text x="117" y="192" text-anchor="middle" font-size="9.5" fill="#0369a1" opacity="0.65">POST/GET /api/tasks</text>

  <rect x="229" y="162" width="210" height="38" rx="5" fill="#e0f2fe" stroke="#7dd3fc" stroke-width="1"/>
  <text x="334" y="178" text-anchor="middle" font-size="11" font-weight="600" fill="#0369a1">WebSocket</text>
  <text x="334" y="192" text-anchor="middle" font-size="9.5" fill="#0369a1" opacity="0.65">/ws/tasks/{id} 实时推送</text>

  <rect x="446" y="162" width="210" height="38" rx="5" fill="#e0f2fe" stroke="#7dd3fc" stroke-width="1"/>
  <text x="551" y="178" text-anchor="middle" font-size="11" font-weight="600" fill="#0369a1">Pydantic v2</text>
  <text x="551" y="192" text-anchor="middle" font-size="9.5" fill="#0369a1" opacity="0.65">结构化输出验证</text>

  <rect x="663" y="162" width="227" height="38" rx="5" fill="#e0f2fe" stroke="#7dd3fc" stroke-width="1"/>
  <text x="776.5" y="178" text-anchor="middle" font-size="11" font-weight="600" fill="#0369a1">SQLAlchemy + SQLite</text>
  <text x="776.5" y="192" text-anchor="middle" font-size="9.5" fill="#0369a1" opacity="0.65">任务持久化</text>

  <!-- Arrow ②→③ -->
  <line x1="10" y1="218" x2="155" y2="218" stroke="#e5e7eb" stroke-width="1"/>
  <text x="450" y="221" text-anchor="middle" font-size="9.5" fill="#9ca3af">任务分发 · asyncio.Queue</text>
  <line x1="745" y1="218" x2="890" y2="218" stroke="#e5e7eb" stroke-width="1"/>
  <line x1="450" y1="208" x2="450" y2="228" stroke="#d1d5db" stroke-width="1.5" marker-end="url(#arr-gray)"/>

  <!-- ══════════════════════ ③ 协调层  y=232 h=72 ══════════════════════ -->
  <rect x="10" y="232" width="880" height="72" rx="8" fill="#f5f3ff" stroke="#ddd6fe" stroke-width="1.5"/>
  <text x="19" y="247" font-size="9" font-weight="700" fill="#4338ca" opacity="0.6" letter-spacing="0.6">③ 协调层 · LangGraph StateGraph</text>

  <!-- 4 boxes: w=210, gap=7 -->
  <rect x="12"  y="251" width="210" height="45" rx="5" fill="#ede9fe" stroke="#c4b5fd" stroke-width="1"/>
  <text x="117" y="269" text-anchor="middle" font-size="11" font-weight="600" fill="#4c1d95">Commander Agent</text>
  <text x="117" y="283" text-anchor="middle" font-size="9.5" fill="#4c1d95" opacity="0.65">需求拆解 → DAG</text>

  <rect x="229" y="251" width="210" height="45" rx="5" fill="#ede9fe" stroke="#c4b5fd" stroke-width="1"/>
  <text x="334" y="269" text-anchor="middle" font-size="11" font-weight="600" fill="#4c1d95">asyncio.Queue</text>
  <text x="334" y="283" text-anchor="middle" font-size="9.5" fill="#4c1d95" opacity="0.65">任务调度 · 依赖管理</text>

  <rect x="446" y="251" width="210" height="45" rx="5" fill="#ede9fe" stroke="#c4b5fd" stroke-width="1"/>
  <text x="551" y="269" text-anchor="middle" font-size="11" font-weight="600" fill="#4c1d95">mem0 + SQLite</text>
  <text x="551" y="283" text-anchor="middle" font-size="9.5" fill="#4c1d95" opacity="0.65">记忆管理 · 跨会话</text>

  <rect x="663" y="251" width="227" height="45" rx="5" fill="#ede9fe" stroke="#c4b5fd" stroke-width="1"/>
  <text x="776.5" y="269" text-anchor="middle" font-size="11" font-weight="600" fill="#4c1d95">MemorySaver</text>
  <text x="776.5" y="283" text-anchor="middle" font-size="9.5" fill="#4c1d95" opacity="0.65">LangGraph 断点续跑</text>

  <!-- Arrow ③→④ -->
  <line x1="10" y1="315" x2="65" y2="315" stroke="#e5e7eb" stroke-width="1"/>
  <text x="450" y="318" text-anchor="middle" font-size="9.5" fill="#9ca3af">LangGraph StateGraph · 有向图 + 条件边 (route_to_expert)</text>
  <line x1="835" y1="315" x2="890" y2="315" stroke="#e5e7eb" stroke-width="1"/>
  <line x1="450" y1="304" x2="450" y2="324" stroke="#d1d5db" stroke-width="1.5" marker-end="url(#arr-gray)"/>

  <!-- ══════════════════════ ④ 专家 Agent 池  y=328 h=72 ══════════════════════ -->
  <rect x="10" y="328" width="880" height="72" rx="8" fill="#f0fdf4" stroke="#bbf7d0" stroke-width="1.5"/>
  <text x="19" y="343" font-size="9" font-weight="700" fill="#15803d" opacity="0.6" letter-spacing="0.6">④ 专家 Agent 池 · 每个 Agent = LangGraph Node，独立上下文窗口</text>

  <!-- 4 boxes -->
  <rect x="12"  y="347" width="210" height="45" rx="5" fill="#dcfce7" stroke="#86efac" stroke-width="1"/>
  <text x="117" y="365" text-anchor="middle" font-size="11" font-weight="600" fill="#166534">FrontendExpert</text>
  <text x="117" y="379" text-anchor="middle" font-size="9.5" fill="#166534" opacity="0.65">Tkinter / Web UI 代码生成</text>

  <rect x="229" y="347" width="210" height="45" rx="5" fill="#dcfce7" stroke="#86efac" stroke-width="1"/>
  <text x="334" y="365" text-anchor="middle" font-size="11" font-weight="600" fill="#166534">BackendExpert</text>
  <text x="334" y="379" text-anchor="middle" font-size="9.5" fill="#166534" opacity="0.65">SQLite / API 数据层实现</text>

  <rect x="446" y="347" width="210" height="45" rx="5" fill="#dcfce7" stroke="#86efac" stroke-width="1"/>
  <text x="551" y="365" text-anchor="middle" font-size="11" font-weight="600" fill="#166534">TestExpert</text>
  <text x="551" y="379" text-anchor="middle" font-size="9.5" fill="#166534" opacity="0.65">pytest 生成 + 沙箱执行</text>

  <rect x="663" y="347" width="227" height="45" rx="5" fill="#dcfce7" stroke="#86efac" stroke-width="1"/>
  <text x="776.5" y="365" text-anchor="middle" font-size="11" font-weight="600" fill="#166534">UIValidator</text>
  <text x="776.5" y="379" text-anchor="middle" font-size="9.5" fill="#166534" opacity="0.65">界面截图 · 元素验证</text>

  <!-- ══════════════════════ ⑤ Skills  +  ⑥ Validator  y=408 h=102 ══════════════════════ -->

  <!-- Skills: x=10, w=578 -->
  <rect x="10" y="408" width="578" height="102" rx="8" fill="#f0fdfa" stroke="#99f6e4" stroke-width="1.5"/>
  <text x="19" y="423" font-size="9" font-weight="700" fill="#0f766e" opacity="0.6" letter-spacing="0.6">⑤ Agent Skills 层 · 参考 google-gemini/agent-skills</text>

  <!-- 6 skill chips  y=428 -->
  <rect x="16"  y="428" width="78" height="22" rx="11" fill="#ccfbf1" stroke="#5eead4" stroke-width="1"/>
  <text x="55"  y="443" text-anchor="middle" font-size="10" font-weight="600" fill="#115e59">/spec 规格</text>

  <rect x="101" y="428" width="78" height="22" rx="11" fill="#ccfbf1" stroke="#5eead4" stroke-width="1"/>
  <text x="140" y="443" text-anchor="middle" font-size="10" font-weight="600" fill="#115e59">/plan 规划</text>

  <rect x="186" y="428" width="78" height="22" rx="11" fill="#ccfbf1" stroke="#5eead4" stroke-width="1"/>
  <text x="225" y="443" text-anchor="middle" font-size="10" font-weight="600" fill="#115e59">/build 构建</text>

  <rect x="271" y="428" width="78" height="22" rx="11" fill="#ccfbf1" stroke="#5eead4" stroke-width="1"/>
  <text x="310" y="443" text-anchor="middle" font-size="10" font-weight="600" fill="#115e59">/test 测试</text>

  <rect x="356" y="428" width="78" height="22" rx="11" fill="#ccfbf1" stroke="#5eead4" stroke-width="1"/>
  <text x="395" y="443" text-anchor="middle" font-size="10" font-weight="600" fill="#115e59">/review 审查</text>

  <rect x="441" y="428" width="78" height="22" rx="11" fill="#ccfbf1" stroke="#5eead4" stroke-width="1"/>
  <text x="480" y="443" text-anchor="middle" font-size="10" font-weight="600" fill="#115e59">/ship 交付</text>

  <!-- Skills sub text -->
  <text x="16" y="466" font-size="9" fill="#0f766e" opacity="0.7">三层渐进加载 · L1 发现(~100 tokens) · L2 激活(&lt;5k) · L3 穿透(按需)</text>

  <!-- MCP note in Skills -->
  <rect x="16" y="474" width="563" height="28" rx="5" fill="#d1fae5" stroke="#6ee7b7" stroke-width="1" opacity="0.8"/>
  <text x="297.5" y="492" text-anchor="middle" font-size="9.5" font-weight="600" fill="#065f46">MCP Client 标准化工具调用 · langchain-mcp-adapters</text>

  <!-- Validator: x=596, w=294 -->
  <rect x="596" y="408" width="294" height="102" rx="8" fill="#fff7ed" stroke="#fdba74" stroke-width="1.5"/>
  <text x="605" y="423" font-size="9" font-weight="700" fill="#c2410c" opacity="0.6" letter-spacing="0.6">⑥ 验证者 Agent · Validator</text>

  <rect x="603" y="428" width="280" height="34" rx="5" fill="#fed7aa" stroke="#fb923c" stroke-width="1"/>
  <text x="743" y="441" text-anchor="middle" font-size="11" font-weight="600" fill="#9a3412">ruff + LLM 审计</text>
  <text x="743" y="455" text-anchor="middle" font-size="9.5" fill="#9a3412" opacity="0.65">代码质量检查 + 验收标准对比</text>

  <!-- Pass -->
  <rect x="603" y="468" width="133" height="22" rx="4" fill="#dcfce7" stroke="#86efac" stroke-width="1"/>
  <text x="669.5" y="483" text-anchor="middle" font-size="9.5" font-weight="700" fill="#166534">✅ 通过 → 完成</text>

  <!-- Fail -->
  <rect x="743" y="468" width="140" height="22" rx="4" fill="#fef3c7" stroke="#fcd34d" stroke-width="1"/>
  <text x="813" y="483" text-anchor="middle" font-size="9.5" font-weight="700" fill="#92400e">❌ 失败 → 修复</text>

  <!-- max 5 rounds note -->
  <text x="743" y="503" text-anchor="middle" font-size="9" fill="#b45309" opacity="0.8">条件边回到 Expert Pool · max 5 轮</text>

  <!-- Loop arrow: from Validator fail badge → Expert Pool right edge -->
  <path d="M 880,468 C 896,468 896,362 880,362" stroke="#f59e0b" stroke-width="1.5" fill="none" stroke-dasharray="5,3" marker-end="url(#arr-amber)"/>
  <text x="894" y="418" text-anchor="middle" font-size="8.5" fill="#b45309" transform="rotate(90,894,418)">修复循环</text>

  <!-- Arrow ⑤⑥ → ⑦ -->
  <line x1="10" y1="521" x2="148" y2="521" stroke="#e5e7eb" stroke-width="1"/>
  <text x="450" y="524" text-anchor="middle" font-size="9.5" fill="#9ca3af">MCP Protocol / Tool calls</text>
  <line x1="752" y1="521" x2="890" y2="521" stroke="#e5e7eb" stroke-width="1"/>
  <line x1="295" y1="510" x2="295" y2="530" stroke="#d1d5db" stroke-width="1.5" marker-end="url(#arr-gray)"/>
  <line x1="743" y1="510" x2="743" y2="530" stroke="#d1d5db" stroke-width="1.5" marker-end="url(#arr-gray)"/>

  <!-- ══════════════════════ ⑦ 工具生态层  y=534 h=70 ══════════════════════ -->
  <rect x="10" y="534" width="880" height="70" rx="8" fill="#f8fafc" stroke="#e2e8f0" stroke-width="1.5"/>
  <text x="19" y="549" font-size="9" font-weight="700" fill="#475569" opacity="0.6" letter-spacing="0.6">⑦ 工具生态层 · MCP Protocol 标准化</text>

  <!-- 5 boxes: w=166, gap=7 -->
  <rect x="12"  y="553" width="166" height="43" rx="5" fill="#f1f5f9" stroke="#cbd5e1" stroke-width="1"/>
  <text x="95"  y="571" text-anchor="middle" font-size="11" font-weight="600" fill="#334155">MCP Servers</text>
  <text x="95"  y="585" text-anchor="middle" font-size="9.5" fill="#334155" opacity="0.65">filesystem · git · sqlite</text>

  <rect x="185" y="553" width="166" height="43" rx="5" fill="#f1f5f9" stroke="#cbd5e1" stroke-width="1"/>
  <text x="268" y="571" text-anchor="middle" font-size="11" font-weight="600" fill="#334155">pywinauto</text>
  <text x="268" y="585" text-anchor="middle" font-size="9.5" fill="#334155" opacity="0.65">Win32 Accessibility</text>

  <rect x="358" y="553" width="166" height="43" rx="5" fill="#f1f5f9" stroke="#cbd5e1" stroke-width="1"/>
  <text x="441" y="571" text-anchor="middle" font-size="11" font-weight="600" fill="#334155">OpenClaw</text>
  <text x="441" y="585" text-anchor="middle" font-size="9.5" fill="#334155" opacity="0.65">跨平台 AI Agent 380k★</text>

  <rect x="531" y="553" width="166" height="43" rx="5" fill="#f1f5f9" stroke="#cbd5e1" stroke-width="1"/>
  <text x="614" y="571" text-anchor="middle" font-size="11" font-weight="600" fill="#334155">Playwright MCP</text>
  <text x="614" y="585" text-anchor="middle" font-size="9.5" fill="#334155" opacity="0.65">Web UI 自动化</text>

  <rect x="704" y="553" width="186" height="43" rx="5" fill="#f1f5f9" stroke="#cbd5e1" stroke-width="1"/>
  <text x="797" y="571" text-anchor="middle" font-size="11" font-weight="600" fill="#334155">ChromaDB</text>
  <text x="797" y="585" text-anchor="middle" font-size="9.5" fill="#334155" opacity="0.65">向量记忆 · 零配置本地</text>

  <!-- ══════════════════════ ⑧ LLM + 可观测  y=612 h=70 ══════════════════════ -->

  <!-- LLM: x=10 w=434 -->
  <rect x="10" y="612" width="434" height="70" rx="8" fill="#1e1b4b" stroke="#4338ca" stroke-width="1.5"/>
  <text x="19" y="628" font-size="9" font-weight="700" fill="#a5b4fc" letter-spacing="0.6">⑧ LLM 层 · Ollama 本地运行</text>

  <rect x="16"  y="633" width="208" height="41" rx="5" fill="#312e81" stroke="#4f46e5" stroke-width="1"/>
  <text x="120" y="650" text-anchor="middle" font-size="11" font-weight="600" fill="#e0e7ff">Qwen2.5-Coder:7b</text>
  <text x="120" y="665" text-anchor="middle" font-size="9.5" fill="#a5b4fc">Expert Agent · 6GB 显存</text>

  <rect x="230" y="633" width="207" height="41" rx="5" fill="#312e81" stroke="#4f46e5" stroke-width="1"/>
  <text x="333.5" y="650" text-anchor="middle" font-size="11" font-weight="600" fill="#e0e7ff">Qwen2.5:14b</text>
  <text x="333.5" y="665" text-anchor="middle" font-size="9.5" fill="#a5b4fc">Commander · 10GB 显存</text>

  <!-- Obs: x=452 w=438 -->
  <rect x="452" y="612" width="438" height="70" rx="8" fill="#1c1917" stroke="#57534e" stroke-width="1.5"/>
  <text x="461" y="628" font-size="9" font-weight="700" fill="#a8a29e" letter-spacing="0.6">⑧ 可观测层</text>

  <rect x="458" y="633" width="209" height="41" rx="5" fill="#292524" stroke="#78716c" stroke-width="1"/>
  <text x="562.5" y="650" text-anchor="middle" font-size="11" font-weight="600" fill="#e7e5e4">OpenTelemetry + Jaeger</text>
  <text x="562.5" y="665" text-anchor="middle" font-size="9.5" fill="#a8a29e">Agent 调用链追踪</text>

  <rect x="673" y="633" width="210" height="41" rx="5" fill="#292524" stroke="#78716c" stroke-width="1"/>
  <text x="778" y="650" text-anchor="middle" font-size="11" font-weight="600" fill="#e7e5e4">LangSmith</text>
  <text x="778" y="665" text-anchor="middle" font-size="9.5" fill="#a8a29e">LLM Prompt 追踪</text>

</svg>
